<?xml version="1.0" standalone="no"?>
<!DOCTYPE svg PUBLIC "-//W3C//DTD SVG 1.1//EN" "http://www.w3.org/Graphics/SVG/1.1/DTD/svg11.dtd" >
<svg xmlns="http://www.w3.org/2000/svg">
<metadata>
This is a custom SVG webfont generated by Font Squirrel.
Copyright   : Copyright 19901993 Bitstream Inc  All rights reserved
</metadata>
<defs>
<font id="AlternateGothic2BTRegular" horiz-adv-x="729" >
<font-face units-per-em="2048" ascent="1638" descent="-410" />
<missing-glyph horiz-adv-x="416" />
<glyph unicode=" "  horiz-adv-x="416" />
<glyph unicode="&#x09;" horiz-adv-x="416" />
<glyph unicode="&#xa0;" horiz-adv-x="416" />
<glyph unicode="!" horiz-adv-x="440" d="M104 1446h230l-47 -1028h-135zM113 0v227h213v-227h-213z" />
<glyph unicode="&#x22;" horiz-adv-x="643" d="M86 879v557h164v-557h-164zM395 879v557h164v-557h-164z" />
<glyph unicode="#" horiz-adv-x="1575" d="M70 428l61 172h297l90 252h-315l61 172h316l155 436h191l-154 -436h250l156 436h190l-154 -436h291l-59 -172h-293l-90 -252h309l-61 -172h-307l-156 -434h-191l156 434h-252l-158 -434h-190l156 434h-299zM618 598h256l91 254h-256z" />
<glyph unicode="$" horiz-adv-x="831" d="M68 184l149 135q21 -54 53 -88.5t80 -56.5v479q-139 102 -204.5 208.5t-65.5 232.5q0 142 76 248t194 131v176h121v-174q78 -11 137 -50t111 -114l-131 -133q-23 40 -51 64t-66 35v-439q81 -60 137.5 -117t90.5 -114q67 -113 67 -257q0 -155 -82 -261q-82 -105 -213 -122 v-172h-121v174q-103 19 -175.5 74.5t-106.5 140.5zM274 1110q0 -96 76 -178v338q-42 -26 -59 -61.5t-17 -98.5zM471 172q21 7 38.5 25t29.5 43.5t19 58.5t7 70q0 58 -24 109t-70 93v-399z" />
<glyph unicode="%" horiz-adv-x="1061" d="M23 973v260q0 115 58.5 178.5t166.5 63.5q50 0 90 -17t68.5 -49t43.5 -77.5t15 -102.5v-260q0 -127 -57.5 -194.5t-163.5 -67.5q-109 0 -165 67t-56 199zM109 0l653 1446h176l-653 -1446h-176zM178 932q0 -39 19 -63.5t47 -24.5q63 0 63 88v332q0 34 -17 54.5t-46 20.5 q-28 0 -47 -21.5t-19 -53.5v-332zM594 236v260q0 114 59.5 177.5t167.5 63.5q50 0 90 -17t67.5 -48.5t42.5 -77t15 -102.5v-261q0 -127 -56.5 -194.5t-164.5 -67.5q-109 0 -165 67.5t-56 199.5zM752 195q0 -40 18 -65.5t45 -25.5q66 0 66 91v329q0 34 -18.5 56t-47.5 22 q-27 0 -45 -21.5t-18 -54.5v-331z" />
<glyph unicode="&#x26;" horiz-adv-x="903" d="M51 313q0 99 41 196t131 210q-52 120 -76 219.5t-24 194.5q0 152 78 247q80 95 202 95q118 0 185 -82q69 -83 69 -222q0 -95 -39 -189q-38 -92 -167 -271q31 -69 67.5 -136t81.5 -137q25 48 44 108t34 138l186 -49q-11 -93 -42.5 -181.5t-88.5 -185.5q23 -32 50 -52.5 t61 -31.5v-217q-69 5 -126 34.5t-108 86.5q-102 -121 -252 -121q-137 0 -222 96q-85 95 -85 250zM254 334q0 -63 33.5 -101t87.5 -38q67 0 104 57q-38 45 -76.5 108.5t-87.5 161.5q-61 -102 -61 -188zM303 1145q0 -63 14.5 -123.5t47.5 -132.5q58 87 85 156t27 135 q0 64 -23.5 103.5t-60.5 39.5q-19 0 -35.5 -13t-28.5 -36.5t-19 -56.5t-7 -72z" />
<glyph unicode="'" horiz-adv-x="334" d="M86 879v557h164v-557h-164z" />
<glyph unicode="(" horiz-adv-x="563" d="M102 668q0 212 59.5 415.5t176.5 391.5h192q-223 -366 -223 -797q0 -215 57.5 -419t172.5 -390l-142 -86q-148 217 -220.5 436t-72.5 449z" />
<glyph unicode=")" horiz-adv-x="563" d="M27 -131q115 188 173 391.5t58 417.5q0 215 -56.5 413.5t-168.5 383.5h194q117 -187 175.5 -390t58.5 -417q0 -230 -72.5 -449t-220.5 -436z" />
<glyph unicode="*" horiz-adv-x="788" d="M61 1145l50 151l245 -127l-37 277h150l-37 -277l246 127l49 -151l-272 -45l196 -197l-129 -96l-129 248l-127 -248l-129 96l197 197z" />
<glyph unicode="+" horiz-adv-x="1706" d="M254 528v166h514v527h170v-527h514v-166h-514v-528h-170v528h-514z" />
<glyph unicode="," horiz-adv-x="440" d="M115 0v227h213v-227l-115 -256h-98l73 256h-73z" />
<glyph unicode="-" horiz-adv-x="635" d="M80 457v151h475v-151h-475z" />
<glyph unicode="." horiz-adv-x="440" d="M115 0v227h213v-227h-213z" />
<glyph unicode="/" horiz-adv-x="500" d="M-154 -190l586 1665h162l-586 -1665h-162z" />
<glyph unicode="0" horiz-adv-x="831" d="M84 371v741q0 170 89 268q90 97 249 97q151 0 239 -100q89 -101 89 -271v-741q0 -191 -86.5 -293.5t-247.5 -102.5q-163 0 -247.5 102.5t-84.5 299.5zM301 309q0 -61 32.5 -98t86.5 -37q51 0 81.5 36t30.5 99v846q0 51 -32 83t-84 32q-51 0 -83 -32t-32 -81v-848z" />
<glyph unicode="1" horiz-adv-x="530" d="M-10 1122v146q87 30 147.5 74t100.5 104h149v-1446h-221v1122h-176z" />
<glyph unicode="2" horiz-adv-x="809" d="M61 209q230 317 342.5 539t112.5 358q0 81 -27 127.5t-73 46.5q-30 0 -51.5 -10.5t-35.5 -34.5t-21 -62t-9 -93l-2 -54h-217v27q0 100 22.5 178.5t66 132.5t106 82.5t143.5 28.5q140 0 222 -94q83 -94 83 -253q0 -158 -85 -349q-42 -96 -125.5 -237.5t-211.5 -332.5h404 v-209h-644v209z" />
<glyph unicode="3" horiz-adv-x="762" d="M57 381v37h211v-60q0 -94 25.5 -138t79.5 -44q62 0 90.5 48.5t28.5 158.5q0 150 -41 208q-40 58 -144 58h-28v203q6 0 17.5 1t16.5 1q84 0 121 51.5t37 171.5q0 100 -22.5 144.5t-71.5 44.5q-55 0 -80 -36.5t-25 -121.5q0 -21 0.5 -32.5t1.5 -22.5h-211v12q0 193 83 300 q82 108 231 108q291 0 291 -410q0 -63 -7.5 -112.5t-22.5 -87t-38.5 -65t-56.5 -46.5q81 -40 116 -117q35 -78 35 -225q0 -215 -78.5 -327t-230.5 -112q-78 0 -139 27.5t-103 80t-64 128.5t-22 174z" />
<glyph unicode="4" horiz-adv-x="817" d="M51 352v191l371 903h209v-903h135v-191h-135v-352h-209v352h-371zM242 543h180v528z" />
<glyph unicode="5" horiz-adv-x="786" d="M84 360v43h199v-73q0 -164 116 -164q49 0 76 37t27 106v369q0 63 -22.5 91t-71.5 28q-43 0 -74.5 -30t-48.5 -87l-183 8l25 758h545l8 -209h-377l-18 -340q48 48 98.5 71t101.5 23q106 0 163 -78.5t57 -226.5v-367q0 -161 -86 -256q-85 -94 -234 -94t-225 99t-76 292z " />
<glyph unicode="6" horiz-adv-x="831" d="M90 371v741q0 170 90 268q91 97 250 97q150 0 239 -101t89 -270v-45h-219v94q0 51 -32 83t-83 32t-83 -31t-32 -82v-356q42 45 95 68.5t110 23.5q117 0 180.5 -73t63.5 -208v-247q0 -190 -87.5 -293t-248.5 -103q-163 0 -247.5 102.5t-84.5 299.5zM309 309 q0 -61 32.5 -98t86.5 -37q51 0 81 36t30 99v281q0 54 -26 83t-71 29q-37 0 -71.5 -24.5t-61.5 -69.5v-299z" />
<glyph unicode="7" horiz-adv-x="649" d="M12 1237v209h606v-158l-270 -1288h-215l266 1237h-387z" />
<glyph unicode="8" horiz-adv-x="762" d="M59 408q0 138 35.5 226t108.5 136q-63 45 -92 124t-29 204q0 185 76.5 281t224.5 96q145 0 221 -96t76 -279q0 -127 -28.5 -206t-90.5 -126q69 -36 105 -132.5t36 -246.5q0 -205 -81.5 -312.5t-237.5 -107.5q-324 0 -324 439zM268 432q0 -147 27 -202q27 -56 92 -56 q28 0 48.5 12.5t33.5 40.5t19 72.5t6 108.5q0 132 -25 187q-26 54 -82 54q-65 0 -92 -48q-27 -47 -27 -169zM281 1090q0 -120 23 -166q22 -45 81 -45q26 0 44 11t29.5 35.5t17 64.5t5.5 97q0 123 -22 167q-22 46 -78 46t-78 -45q-22 -44 -22 -165z" />
<glyph unicode="9" horiz-adv-x="831" d="M63 1010q0 467 345 467q162 0 246.5 -102.5t84.5 -299.5v-741q0 -171 -90 -268t-250 -97q-151 0 -239 100t-88 271v45h219v-96q0 -52 31.5 -83.5t83.5 -31.5q49 0 81.5 32t32.5 83v356q-78 -82 -174 -82q-141 0 -212 112t-71 335zM291 920q0 -170 110 -170q79 0 119 88 v299q0 63 -32 98t-87 35q-54 0 -82 -38t-28 -110v-202z" />
<glyph unicode=":" horiz-adv-x="440" d="M115 0v227h213v-227h-213zM115 408v227h213v-227h-213z" />
<glyph unicode=";" horiz-adv-x="440" d="M115 0v227h213v-227l-115 -256h-98l73 256h-73zM115 408v227h213v-227h-213z" />
<glyph unicode="&#x3c;" horiz-adv-x="1706" d="M264 530v160l1178 486v-185l-934 -381l934 -381v-182z" />
<glyph unicode="=" horiz-adv-x="1706" d="M254 322v165h1198v-165h-1198zM254 733v168h1198v-168h-1198z" />
<glyph unicode="&#x3e;" horiz-adv-x="1706" d="M264 47v182l934 381l-934 381v185l1178 -486v-160z" />
<glyph unicode="?" horiz-adv-x="631" d="M6 1198q80 277 307 277q134 0 211 -75q78 -75 78 -204q0 -111 -86 -263q-43 -76 -67.5 -123.5t-32.5 -66.5q-20 -52 -30.5 -110t-10.5 -133q0 -29 0.5 -45t0.5 -29h-173q0 10 -1 29.5t-1 29.5q0 105 15.5 197.5t47.5 177.5q22 60 80 170q57 108 57 154q0 43 -23 69.5 t-61 26.5t-70.5 -36.5t-66.5 -117.5zM182 0v238h215v-238h-215z" />
<glyph unicode="@" horiz-adv-x="2048" d="M98 522q0 166 51.5 313.5t153.5 272.5q148 180 353.5 272.5t459.5 92.5q83 0 162.5 -11.5t152.5 -34t137.5 -54.5t117.5 -73q264 -204 264 -536q0 -163 -64.5 -302.5t-185.5 -236.5q-69 -55 -149.5 -83.5t-168.5 -28.5q-106 0 -157 40.5t-51 125.5v4q-55 -88 -128 -128 t-176 -40q-153 0 -233 86t-80 250q0 233 138 395t333 162q90 0 149.5 -34.5t98.5 -107.5l55 107h154l-148 -586l-2 -12q-2 -14 -4 -23t-2 -14q0 -38 26.5 -61t69.5 -23q51 0 107 30.5t106 84.5q72 77 110 177.5t38 215.5q0 254 -187 411q-188 158 -489 158q-275 0 -471 -125 q-91 -57 -160.5 -129t-118.5 -162q-98 -179 -98 -395q0 -311 209 -499q209 -187 559 -187q167 0 323.5 48.5t291.5 142.5l67 -99q-150 -114 -318.5 -170.5t-355.5 -56.5q-193 0 -351 48t-281 142q-156 118 -232 275t-76 358zM741 444q0 -99 45 -151.5t129 -52.5q89 0 163 66 q75 69 100 173l55 228q-14 85 -61.5 130.5t-122.5 45.5q-127 0 -218 -129q-90 -128 -90 -310z" />
<glyph unicode="A" horiz-adv-x="791" d="M12 0l238 1446h291l237 -1446h-229l-45 313h-225l-48 -313h-219zM307 518h170l-76 604h-14z" />
<glyph unicode="B" horiz-adv-x="868" d="M115 0v1446h295q179 0 275.5 -98t96.5 -279q0 -109 -38 -189.5t-117 -140.5q89 -51 131.5 -136.5t42.5 -215.5q0 -199 -86.5 -293t-270.5 -94h-329zM336 209h96q72 0 105.5 49.5t33.5 157.5q0 59 -9 100.5t-28.5 68t-50.5 38.5t-75 12h-72v-426zM336 844h90q61 0 95 52 t34 146q0 103 -34.5 149t-112.5 46h-72v-393z" />
<glyph unicode="C" horiz-adv-x="850" d="M88 371v741q0 170 93 268q93 97 257 97q154 0 245 -100t91 -271v-139h-229v159q0 150 -115 150t-115 -150v-807q0 -151 115 -151t115 151v197h229v-151q0 -191 -89 -293.5t-255 -102.5q-170 0 -256 101.5t-86 300.5z" />
<glyph unicode="D" horiz-adv-x="881" d="M115 0v1446h317q185 0 273 -96.5t88 -300.5v-646q0 -105 -20.5 -181.5t-63.5 -125.5t-109.5 -72.5t-157.5 -23.5h-327zM336 213h113q60 0 88 37t28 115v696q0 90 -42.5 131t-135.5 41h-51v-1020z" />
<glyph unicode="E" horiz-adv-x="754" d="M115 0v1446h581v-209h-358v-379h258v-209h-258v-432h358v-217h-581z" />
<glyph unicode="F" horiz-adv-x="684" d="M115 0v1446h581v-209h-358v-379h258v-209h-258v-649h-223z" />
<glyph unicode="G" horiz-adv-x="852" d="M88 371v741q0 170 93 268q93 97 257 97q159 0 240.5 -93.5t81.5 -277.5v-133h-215v153q0 150 -115 150t-115 -150v-807q0 -151 115 -151t115 151v226h-135v184h350v-729h-107l-43 100q-37 -67 -88.5 -99t-126.5 -32q-150 0 -228.5 102.5t-78.5 299.5z" />
<glyph unicode="H" horiz-adv-x="897" d="M115 0v1446h221v-590h223v590h223v-1446h-223v647h-223v-647h-221z" />
<glyph unicode="I" horiz-adv-x="451" d="M115 0v1446h227v-1446h-227z" />
<glyph unicode="J" horiz-adv-x="473" d="M-12 0v223q2 0 6.5 -0.5t10.5 -1.5q11 -1 17.5 -1.5t10.5 -0.5q57 0 87 30.5t30 90.5v25v1081h223v-1063q0 -196 -63.5 -289.5t-196.5 -93.5h-125z" />
<glyph unicode="K" horiz-adv-x="840" d="M115 0v1446h223v-610q10 36 18 58l13 36l221 516h221l-248 -494l277 -952h-232l-188 727l-82 -164v-563h-223z" />
<glyph unicode="L" horiz-adv-x="692" d="M115 0v1446h221v-1237h346v-209h-567z" />
<glyph unicode="M" horiz-adv-x="1149" d="M115 1446h297l145 -801q18 -96 18 -217q0 51 5 103t16 112l139 803h301v-1446h-209v913q0 39 4.5 105t12.5 147q-2 -14 -5.5 -34t-7.5 -46l-14 -80q-6 -31 -8 -45l-182 -960h-111l-174 961l-22 127q-6 35 -9 54t-4 23q7 -75 11 -139t4 -113v-913h-207v1446z" />
<glyph unicode="N" horiz-adv-x="938" d="M115 0v1446h200l283 -864q8 -25 19.5 -65.5t23.5 -88.5q-11 63 -18 116.5t-7 78.5v823h209v-1446h-209l-272 799l-5 15q-14 42 -24.5 77t-17.5 65q12 -76 18.5 -126.5t6.5 -73.5v-756h-207z" />
<glyph unicode="O" horiz-adv-x="862" d="M88 371v741q0 170 93 268q93 97 257 97q154 0 245 -100t91 -271v-741q0 -191 -89 -293.5t-255 -102.5q-168 0 -255 102t-87 300zM315 319q0 -151 115 -151t115 151v807q0 150 -115 150t-115 -150v-807z" />
<glyph unicode="P" horiz-adv-x="829" d="M113 0v1446h327q182 0 265 -99q83 -100 83 -319q0 -204 -80 -323q-80 -117 -219 -117h-153v-588h-223zM336 795h88q78 0 107 47q30 48 30 182q0 124 -31 168q-32 45 -114 45h-80v-442z" />
<glyph unicode="Q" horiz-adv-x="860" d="M88 371v741q0 170 93 268q93 97 257 97q154 0 245 -100t91 -271v-741q0 -70 -7 -115t-23 -83q12 -23 31 -33.5t50 -10.5h11v-221h-25q-78 0 -129.5 28t-83.5 88q-43 -25 -87 -37t-95 -12q-157 0 -242.5 104.5t-85.5 297.5zM315 319q0 -151 115 -151t115 151v807 q0 150 -115 150t-115 -150v-807z" />
<glyph unicode="R" horiz-adv-x="854" d="M113 0v1446h327q183 0 266 -99q82 -98 82 -319q0 -68 -8 -122.5t-25 -97.5t-44 -76.5t-64 -59.5l164 -672h-231l-138 608h-106v-608h-223zM336 817h88q77 0 107 46t30 173q0 113 -32 157t-113 44h-80v-420z" />
<glyph unicode="S" horiz-adv-x="803" d="M47 367l213 32q6 -111 42 -163t106 -52q61 0 99 38.5t38 101.5q0 112 -180 292l-21 21q-88 88 -144.5 155t-81.5 115q-50 95 -50 201q0 154 100 257q100 105 246 105q141 0 231 -97q89 -95 103 -261l-218 -31q-6 97 -34 139t-88 42q-54 0 -86.5 -36.5t-32.5 -97.5 q0 -63 53 -144t157 -185l13 -13q77 -77 127.5 -137t74.5 -108q48 -95 48 -213q0 -157 -98 -260q-98 -101 -248 -101q-167 0 -264 106q-98 106 -105 294z" />
<glyph unicode="T" horiz-adv-x="662" d="M-12 1237v209h686v-209h-232v-1237h-223v1237h-231z" />
<glyph unicode="U" horiz-adv-x="885" d="M98 371v1075h228v-1120q0 -63 32 -100.5t86 -37.5t83.5 37t29.5 101v1120h227v-1081q0 -192 -88 -294t-254 -102q-168 0 -256 102.5t-88 299.5z" />
<glyph unicode="V" horiz-adv-x="786" d="M20 1446h218l133 -856q13 -82 18.5 -154t5.5 -147v-26q3 96 9 178.5t16 148.5l129 856h219l-256 -1446h-233z" />
<glyph unicode="W" horiz-adv-x="1126" d="M12 1446h213l99 -857q8 -66 11 -120.5t3 -106.5v-28l4 79q5 87 8.5 137.5t5.5 67.5l111 828h190l119 -856q7 -51 11 -114.5t4 -141.5q0 7 0.5 17.5t1.5 24.5q5 91 9 151.5t7 90.5l92 828h211l-225 -1446h-187l-122 839q-7 49 -11 115t-4 142q-6 -118 -10 -189t-8 -95 l-119 -812h-186z" />
<glyph unicode="X" horiz-adv-x="764" d="M-4 0l264 735l-260 711h231l136 -426h10l143 426h228l-252 -692l274 -754h-233l-146 471h-8l-158 -471h-229z" />
<glyph unicode="Y" horiz-adv-x="702" d="M-25 1446h226l145 -578h14l138 578h227l-260 -846v-600h-223v573z" />
<glyph unicode="Z" horiz-adv-x="774" d="M63 0v223l400 1000h-367v223h609v-209l-404 -1014h404v-223h-642z" />
<glyph unicode="[" horiz-adv-x="563" d="M141 -186v1661h355v-185h-154v-1290h154v-186h-355z" />
<glyph unicode="\" horiz-adv-x="500" d="M-96 1475h164l585 -1665h-164z" />
<glyph unicode="]" horiz-adv-x="563" d="M70 0h153v1290h-153v185h352v-1661h-352v186z" />
<glyph unicode="^" horiz-adv-x="2048" d="M418 899l497 561h218l495 -561h-207l-397 397l-399 -397h-207z" />
<glyph unicode="_" horiz-adv-x="1024" d="M0 -311h1024v-172h-1024v172z" />
<glyph unicode="`" horiz-adv-x="1024" d="M279 1389h251l99 -222h-162z" />
<glyph unicode="a" d="M47 221q0 147 83 251q84 104 308 224v115q0 98 -67 98q-42 0 -66 -24t-24 -66v-59h-201q0 5 -1 14t-1 14q0 135 85 220q86 86 214 86q136 0 201 -81.5t65 -252.5v-455q0 -108 5 -187.5t14 -117.5h-199q-8 21 -12.5 49.5t-6.5 70.5q-48 -64 -105.5 -99t-117.5 -35 q-84 0 -129 60.5t-45 174.5zM252 272q0 -51 16 -77.5t45 -26.5q35 0 69.5 26.5t55.5 71.5v277q-54 -35 -90 -67t-56 -61q-40 -58 -40 -143z" />
<glyph unicode="b" horiz-adv-x="741" d="M96 0v1446h201v-465q40 49 85 74.5t91 25.5q94 0 143.5 -68t49.5 -200v-592q0 -115 -46.5 -175t-134.5 -60q-58 0 -103.5 23.5t-84.5 72.5v-82h-201zM297 203q24 -26 46.5 -37.5t47.5 -11.5q36 0 53 22.5t17 73.5v551q0 110 -82 110q-42 0 -82 -43v-665z" />
<glyph unicode="c" d="M76 301v471q0 148 82 234q82 88 217 88q66 0 119 -21.5t89.5 -62t56 -98.5t19.5 -132v-84h-204v86q0 67 -20.5 96t-65.5 29q-48 0 -68 -29t-20 -96v-475q0 -84 19.5 -116.5t66.5 -32.5q48 0 68 27q20 29 20 122v82h204v-88q0 -330 -297 -330q-133 0 -209 88 q-77 89 -77 242z" />
<glyph unicode="d" horiz-adv-x="741" d="M76 221v592q0 132 49 200t143 68q46 0 91 -25.5t85 -74.5v465h199v-1446h-199v84q-39 -51 -86 -74.5t-104 -23.5q-88 0 -133 60t-45 175zM281 250q0 -51 16.5 -72.5t52.5 -21.5q26 0 48.5 11t45.5 36v665q-42 45 -84 45q-36 0 -57.5 -29t-21.5 -83v-551z" />
<glyph unicode="e" d="M76 301v479q0 139 84 226q84 88 217 88q137 0 209.5 -80.5t72.5 -233.5v-272h-378v-201q0 -84 19.5 -116.5t66.5 -32.5q48 0 68 27q20 29 20 122v74h204v-80q0 -330 -297 -330q-134 0 -210 88t-76 242zM281 674h174v108q0 67 -20.5 96t-65.5 29q-48 0 -68 -29t-20 -96 v-108z" />
<glyph unicode="f" horiz-adv-x="477" d="M10 901v166h113v125q0 254 231 254q61 0 115 -16v-174q-21 4 -35 7t-18 3q-51 0 -72.5 -21t-21.5 -69v-109h127v-166h-127v-901h-199v901h-113z" />
<glyph unicode="g" horiz-adv-x="707" d="M8 -172q0 25 12 51t33 47q20 20 51 38t82 38q-60 15 -91.5 46.5t-31.5 76.5q0 52 28 92q28 42 102 96q-35 22 -61 47t-40 53q-29 55 -29 152v213q0 152 71 234t202 82q69 0 124.5 -29t106.5 -90q43 95 150 106v-173q-28 5 -41 5q-52 0 -76 -41q1 -18 1.5 -36t0.5 -35 v-238q0 -69 -17 -124.5t-49.5 -93.5t-80.5 -56q-38 -14 -83 -14q-13 0 -26 1l-48 4q-4 0 -5 1q-47 -35 -47 -68q0 -46 117 -53q35 -2 63 -4.5t49 -5.5q130 -19 191 -77.5t61 -162.5q0 -126 -97 -189t-288 -63q-159 0 -246.5 44.5t-87.5 125.5zM227 -109q0 -33 41 -59 q40 -25 103 -25q39 0 71.5 6.5t55.5 18t36 27.5t13 35q0 21 -13 36t-41.5 25t-75.5 15t-114 5q-76 -35 -76 -84zM246 553q0 -57 20.5 -83t65.5 -26q88 0 88 109v248q0 108 -88 108q-45 0 -65.5 -25.5t-20.5 -82.5v-248z" />
<glyph unicode="h" horiz-adv-x="756" d="M96 0v1446h201v-496q55 64 113.5 97.5t113.5 33.5q140 0 140 -188v-893h-199v805q0 50 -11.5 67t-41.5 17q-22 0 -54.5 -22.5t-60.5 -57.5v-809h-201z" />
<glyph unicode="i" horiz-adv-x="393" d="M96 0v1067h201v-1067h-201zM96 1247v199h201v-199h-201z" />
<glyph unicode="j" horiz-adv-x="403" d="M-41 -147q15 -5 30 -7t29 -2q38 0 62 23t24 55v1145h199v-1149q0 -254 -231 -254q-31 0 -58 4t-55 13v172zM104 1247v199h199v-199h-199z" />
<glyph unicode="k" horiz-adv-x="711" d="M96 0v1446h201v-770l182 391h213l-198 -358l211 -709h-201l-139 528l-68 -125v-403h-201z" />
<glyph unicode="l" horiz-adv-x="393" d="M96 0v1446h201v-1446h-201z" />
<glyph unicode="m" horiz-adv-x="1122" d="M96 1067h201v-111q103 125 223 125q114 0 142 -125q48 58 107 90.5t114 32.5q147 0 147 -180v-899h-201v805q0 50 -11.5 67t-41.5 17q-21 0 -54 -22.5t-60 -57.5v-809h-185v805q0 49 -12.5 66.5t-44.5 17.5q-23 0 -58 -22t-65 -58v-809h-201v1067z" />
<glyph unicode="n" horiz-adv-x="756" d="M96 0v1067h201v-117q55 64 113.5 97.5t113.5 33.5q140 0 140 -188v-893h-199v805q0 50 -11.5 67t-41.5 17q-22 0 -54.5 -22.5t-60.5 -57.5v-809h-201z" />
<glyph unicode="o" horiz-adv-x="727" d="M76 270v553q0 123 80 197t215 74q123 0 201 -78q79 -78 79 -199v-551q0 -136 -77 -215q-77 -78 -212 -78q-130 0 -208 80q-78 81 -78 217zM281 250q0 -45 21 -68.5t60 -23.5q40 0 63.5 24.5t23.5 67.5v581q0 35 -24 56.5t-63 21.5q-36 0 -58.5 -21.5t-22.5 -56.5v-581z " />
<glyph unicode="p" horiz-adv-x="741" d="M96 -336v1403h201v-84q39 51 85 74.5t103 23.5q88 0 134.5 -61t46.5 -176v-590q0 -132 -49.5 -200t-143.5 -68q-46 0 -91 25.5t-85 74.5v-422h-201zM297 199q41 -45 82 -45q82 0 82 112v551q0 51 -16.5 72.5t-53.5 21.5q-26 0 -48.5 -11t-45.5 -36v-665z" />
<glyph unicode="q" horiz-adv-x="741" d="M76 254v590q0 115 45 176t133 61q57 0 104 -23.5t86 -74.5v84h199v-1403h-199v422q-40 -49 -85 -74.5t-91 -25.5q-94 0 -143 68t-49 200zM281 266q0 -112 79 -112q42 0 84 45v665q-23 25 -45.5 36t-48.5 11q-36 0 -52.5 -21.5t-16.5 -72.5v-551z" />
<glyph unicode="r" horiz-adv-x="539" d="M96 0v1067h201v-145q77 157 211 157h20v-223q-30 14 -65 14q-78 0 -122 -45.5t-44 -126.5v-698h-201z" />
<glyph unicode="s" horiz-adv-x="686" d="M29 289l192 43q13 -93 44 -133.5t87 -40.5q42 0 67 25.5t25 68.5q0 42 -51 99t-151 137l-5 4q-50 40 -86 76t-58 72q-42 72 -42 163q0 131 81 211q82 80 212 80q61 0 111.5 -19t87.5 -55t58.5 -87.5t26.5 -115.5l-188 -45q-22 135 -106 135q-40 0 -63 -25.5t-23 -68.5 q0 -35 35.5 -79.5t105.5 -101.5q20 -15 34 -27.5t25 -20.5q111 -93 152 -164t41 -158q0 -133 -82 -212q-80 -79 -215 -79q-128 0 -212 84q-83 83 -103 234z" />
<glyph unicode="t" horiz-adv-x="545" d="M27 901v166h123v307h198v-307h148v-166h-148v-657q0 -92 88 -92q20 0 59 10l1 -174q-28 -9 -56 -13t-59 -4q-231 0 -231 254v676h-123z" />
<glyph unicode="u" horiz-adv-x="756" d="M92 174v893h199v-819q0 -38 12.5 -55t40.5 -17q22 0 55.5 22.5t61.5 57.5v811h198v-1067h-198v117q-55 -66 -114 -99.5t-116 -33.5q-139 0 -139 190z" />
<glyph unicode="v" horiz-adv-x="614" d="M0 1067h184l123 -657h10l101 657h196l-206 -1067h-183z" />
<glyph unicode="w" horiz-adv-x="940" d="M0 1067h190l80 -511q8 -52 12.5 -114t8.5 -147q1 60 8 123.5t18 136.5l80 512h152l88 -512q11 -64 18.5 -129t10.5 -131v43q0 57 2 111t10 106l78 512h184l-182 -1067h-174l-92 520q-6 35 -11 95t-8 148q-4 -78 -9.5 -143t-10.5 -101l-78 -519h-176z" />
<glyph unicode="x" horiz-adv-x="621" d="M-4 0l203 557l-189 510h199l96 -287h10l95 287h204l-196 -506l203 -561h-195l-113 328h-8l-115 -328h-194z" />
<glyph unicode="y" horiz-adv-x="653" d="M18 1067h187l123 -684h8l100 684h199l-225 -1141q-29 -142 -95 -201q-67 -61 -196 -61q-25 0 -43 0.5t-37 2.5v190h37q42 0 71.5 9t48.5 28.5t29 51.5t13 79z" />
<glyph unicode="z" horiz-adv-x="635" d="M53 0v178l326 703h-301v186h508v-176l-312 -701h312v-190h-533z" />
<glyph unicode="{" horiz-adv-x="1024" d="M162 442v179q7 0 21.5 -1.5t21.5 -1.5q125 0 178 59t53 202v247q0 143 23 206q22 60 80 95q22 13 49.5 23t59.5 15q64 12 181 12h45v-179q-8 0 -24 1t-23 1q-109 0 -148 -42q-38 -41 -38 -173v-241q0 -154 -44 -221q-44 -65 -159 -93q113 -27 158 -93q22 -32 33.5 -87 t11.5 -133v-240q0 -132 39 -174q40 -43 149 -43q7 0 22 1t23 1v-176h-63q-102 0 -165.5 12t-106.5 37q-58 35 -80 96q-23 63 -23 203v248q0 144 -53 203t-178 59q-7 0 -21.5 -1t-21.5 -1z" />
<glyph unicode="|" horiz-adv-x="1024" d="M424 -483v2048h178v-2048h-178z" />
<glyph unicode="}" horiz-adv-x="1024" d="M152 1298v179h45q114 0 179 -12q32 -5 59.5 -15t49.5 -23q58 -35 80 -95q23 -63 23 -206v-247q0 -145 52 -203t179 -58q6 0 21 1.5t22 1.5v-179q-7 0 -21.5 1t-21.5 1q-126 0 -179 -59q-52 -58 -52 -203v-248q0 -141 -23 -204q-22 -60 -80 -95q-22 -13 -49 -22.5 t-59 -14.5q-65 -12 -180 -12h-45v176q8 0 23 -1t22 -1q109 0 147 42q39 42 39 175v240q0 153 45 219t160 94q-115 28 -160 93q-45 66 -45 221v241q0 132 -38 173q-38 42 -146 42q-7 0 -23 -1t-24 -1z" />
<glyph unicode="~" horiz-adv-x="1706" d="M178 434v187q210 143 387 143q62 0 125 -12q32 -6 74 -17.5t95 -30.5l42 -15q162 -58 250 -58q85 0 176.5 37t202.5 116v-184q-103 -72 -197 -106.5t-184 -34.5q-89 0 -191 35q-13 5 -32 11l-44 15q-213 74 -319 74q-82 0 -174 -38t-211 -122z" />
<glyph unicode="&#xa1;" horiz-adv-x="440" d="M104 0l48 1028h135l47 -1028h-230zM113 1219v227h213v-227h-213z" />
<glyph unicode="&#xa2;" horiz-adv-x="831" d="M125 492v479q0 121 58.5 198.5t170.5 106.5v244h123v-240q61 -15 105 -39.5t72 -62t41.5 -89t13.5 -118.5v-84h-205v86q0 66 -20.5 95.5t-65.5 29.5q-48 0 -68 -29t-20 -96v-477q0 -84 19 -116t67 -32t68 27q20 28 20 121v84h205v-88q0 -147 -56 -224.5t-176 -99.5v-244 h-123v242q-114 30 -171.5 112.5t-57.5 213.5z" />
<glyph unicode="&#xa3;" horiz-adv-x="831" d="M104 0v193q82 15 132 78q51 63 51 151q0 29 -7 70.5t-20 95.5h-139v184h86q-45 109 -65.5 192.5t-20.5 149.5q0 156 90 258q90 103 225 103q164 0 249 -113.5t85 -333.5v-29l-221 1q-2 75 -10 127.5t-21 81.5q-26 59 -84 59q-42 0 -66 -36t-24 -99q0 -54 15 -133 q16 -80 57 -228h246v-184h-205v-7q4 -40 6 -68.5t2 -45.5q0 -75 -19.5 -136t-62.5 -122h391v-209h-670z" />
<glyph unicode="&#xa4;" horiz-adv-x="1241" d="M76 432l203 205q-80 107 -80 248q0 139 80 248l-203 204l92 93l203 -203q109 82 250 82q144 0 251 -82l203 203l94 -93l-204 -204q79 -109 79 -248q0 -140 -79 -248l204 -205l-94 -92l-203 205q-57 -42 -118 -62t-131 -20q-145 0 -252 82l-203 -205zM332 885 q0 -120 84 -205q85 -84 207 -84q121 0 205 84q85 85 85 205q0 119 -86 205t-204 86q-120 0 -206 -86q-85 -85 -85 -205z" />
<glyph unicode="&#xa5;" horiz-adv-x="702" d="M-12 1446h213l141 -590h14l129 590h220l-158 -533h160v-90h-187l-39 -133h226v-90h-252v-600h-213v600h-248v90h221l-39 133h-182v90h153z" />
<glyph unicode="&#xa6;" horiz-adv-x="1024" d="M424 -350v758h178v-758h-178zM424 674v758h178v-758h-178z" />
<glyph unicode="&#xa7;" horiz-adv-x="885" d="M63 799q0 90 54.5 151.5t150.5 77.5q-26 32 -45 59.5t-29 50.5q-20 44 -20 97q0 104 74 172t188 68q94 0 166.5 -37.5t132.5 -118.5l-129 -98q-26 28 -47 47.5t-39 31t-34 16.5t-33 5q-42 0 -68.5 -27.5t-26.5 -70.5q0 -28 25 -65q13 -19 36.5 -45t57.5 -60l172 -172 q45 -45 77 -85.5t52.5 -78t29.5 -73t9 -71.5q0 -94 -49.5 -148.5t-155.5 -76.5q52 -54 75.5 -108.5t23.5 -120.5q0 -121 -74 -190q-73 -70 -199 -70q-90 0 -169.5 44t-139.5 128l131 104q52 -61 90 -88t74 -27q46 0 74 27.5t28 73.5q0 36 -21 74q-10 19 -32 46t-57 64 l-191 201q-47 50 -79 90.5t-49 72.5q-34 64 -34 130zM242 819q0 -36 32.5 -84.5t108.5 -124.5l15 -15q116 -116 169 -116q31 0 51.5 22t20.5 56q0 27 -20 61q-20 35 -74 95q-54 59 -91.5 96.5t-60.5 54.5q-46 35 -78 35q-31 0 -52 -22.5t-21 -57.5z" />
<glyph unicode="&#xa8;" horiz-adv-x="1024" d="M285 1178v200h182v-200h-182zM555 1178v200h184v-200h-184z" />
<glyph unicode="&#xa9;" horiz-adv-x="1706" d="M113 731q0 146 57 280.5t164 243.5q213 215 518 215q153 0 286 -54.5t240 -162.5q106 -106 160.5 -238.5t54.5 -283.5q0 -154 -54.5 -285.5t-158.5 -234.5q-109 -107 -244.5 -164t-283.5 -57q-147 0 -280.5 56.5t-239.5 162.5q-108 107 -163.5 240.5t-55.5 281.5z M223 731q0 -127 48 -240t139 -204t204.5 -139t239.5 -48t240.5 48t208.5 141q90 88 136 200t46 242t-46.5 244t-135.5 203q-91 91 -204.5 137.5t-244.5 46.5t-243.5 -46t-200.5 -136q-91 -93 -139 -208t-48 -241zM457 725q0 209 109 331q109 124 292 124q146 0 243 -77 q96 -76 105 -200h-166q-10 75 -59.5 114.5t-130.5 39.5q-50 0 -89 -22.5t-66 -64.5t-41.5 -102.5t-14.5 -136.5q0 -153 57.5 -235t163.5 -82q81 0 129.5 43.5t59.5 124.5h165q-8 -135 -107 -217q-98 -82 -253 -82q-183 0 -290 119t-107 323z" />
<glyph unicode="&#xaa;" horiz-adv-x="547" d="M35 856q0 102 62 175q62 72 233 157v80q0 33 -13.5 51t-37.5 18q-32 0 -50 -17t-18 -46v-41h-152v20q0 93 63 153q64 60 161 60q200 0 200 -233v-320q0 -72 3.5 -128.5t9.5 -84.5l-148 1q-5 11 -8.5 29t-5.5 54q-36 -45 -79.5 -69.5t-88.5 -24.5q-63 0 -97 42.5 t-34 123.5zM188 891q0 -35 13 -54.5t35 -19.5q25 0 50.5 18.5t43.5 51.5v194q-42 -25 -69.5 -48t-42.5 -43q-30 -41 -30 -99z" />
<glyph unicode="&#xab;" horiz-adv-x="739" d="M76 530l145 318h172l-139 -318l139 -315h-172zM350 530l142 318h172l-140 -318l140 -315h-172z" />
<glyph unicode="&#xac;" horiz-adv-x="1706" d="M254 696v166h1198v-502h-166v336h-1032z" />
<glyph unicode="&#xad;" horiz-adv-x="635" d="M80 457v151h475v-151h-475z" />
<glyph unicode="&#xae;" horiz-adv-x="1706" d="M113 731q0 148 57 284t166 245q105 105 234.5 157.5t281.5 52.5q154 0 289 -56t241 -165q103 -105 157 -236.5t54 -281.5q0 -154 -55.5 -287.5t-161.5 -236.5q-109 -106 -243 -161.5t-281 -55.5q-148 0 -283 57t-241 166q-106 106 -160.5 238.5t-54.5 279.5zM223 731 q0 -126 46.5 -238.5t136.5 -203.5q91 -91 204 -140t234 -49q131 0 246.5 47t209.5 138q90 87 137.5 198.5t47.5 237.5q0 134 -44.5 248t-135.5 205q-93 94 -207 141t-244 47q-260 0 -440 -180q-93 -94 -142 -209.5t-49 -241.5zM551 330v829h319q174 0 262.5 -56.5 t88.5 -168.5q0 -91 -47.5 -150.5t-137.5 -78.5l185 -375h-199l-164 346h-129v-346h-178zM729 786h117q100 0 146 30.5t46 96.5q0 69 -47.5 101.5t-152.5 32.5h-109v-261z" />
<glyph unicode="&#xaf;" horiz-adv-x="1024" d="M313 1212v131h398v-131h-398z" />
<glyph unicode="&#xb0;" horiz-adv-x="674" d="M43 1163q0 125 86 211t209 86q121 0 208 -87t87 -210q0 -121 -87 -208t-210 -87t-208 85t-85 210zM152 1165q0 -76 54 -131q55 -55 132 -55t130 54q54 55 54 132t-54 131q-53 54 -130 54t-132 -54q-54 -54 -54 -131z" />
<glyph unicode="&#xb1;" horiz-adv-x="1706" d="M254 14v168h1198v-168h-1198zM254 707v165h514v334h170v-334h514v-165h-514v-334h-170v334h-514z" />
<glyph unicode="&#xb2;" horiz-adv-x="535" d="M41 578v124q151 190 225 323.5t74 215.5q0 49 -17.5 77t-48.5 28q-40 0 -58.5 -27.5t-18.5 -93.5v-31h-144v14q0 121 58.5 187.5t164.5 66.5q93 0 147 -55t54 -152q0 -96 -57 -214q-56 -115 -221 -339h266v-124h-424z" />
<glyph unicode="&#xb3;" horiz-adv-x="504" d="M37 807v20h139v-34q0 -57 17 -83t53 -26q42 0 60 28t18 95q0 45 -6.5 76t-20.5 49.5t-37.5 26.5t-56.5 8h-19v123h23q55 0 79.5 31.5t24.5 103.5q0 58 -15 85t-48 27q-36 0 -52 -21.5t-16 -72.5v-35h-139v9q0 115 54 179t153 64q192 0 192 -246q0 -76 -19.5 -119.5 t-62.5 -66.5q27 -12 46.5 -29t31.5 -41.5t17.5 -57.5t5.5 -77q0 -128 -52.5 -195t-152.5 -67q-103 0 -160 64t-57 182z" />
<glyph unicode="&#xb4;" horiz-adv-x="1024" d="M397 1167l97 222h254l-189 -222h-162z" />
<glyph unicode="&#xb5;" horiz-adv-x="1208" d="M-92 -430l297 1511h229l-125 -635q-12 -59 -12 -104q0 -97 46 -147t136 -50q123 0 193 88q71 88 112 293l109 555h225l-145 -739q-19 -95 -19 -133q0 -36 15.5 -51t52.5 -15q13 0 20.5 0.5t13.5 1.5l-32 -159q-32 -9 -68.5 -13t-81.5 -4q-149 0 -149 125v15 q-42 -67 -108.5 -104.5t-145.5 -37.5q-81 0 -137 26t-98 83l-99 -506h-229z" />
<glyph unicode="&#xb6;" horiz-adv-x="1024" d="M55 1130q0 158 107 253q106 96 284 96h523v-99h-117v-1380h-129v1380h-168v-1380h-131v784q-168 6 -269 101q-100 94 -100 245z" />
<glyph unicode="&#xb7;" horiz-adv-x="440" d="M92 741q0 54 37 91q38 38 90 38q53 0 91 -38t38 -91t-38 -91t-91 -38q-52 0 -90 38q-37 38 -37 91z" />
<glyph unicode="&#xb8;" horiz-adv-x="1024" d="M299 -240q68 -16 131 -16q37 0 59.5 14t22.5 37q0 60 -111 60h-10l62 145h69l-35 -78h17q96 0 148.5 -33.5t52.5 -93.5q0 -64 -61 -97.5t-179 -33.5q-80 0 -166 19v77z" />
<glyph unicode="&#xb9;" horiz-adv-x="350" d="M-6 1251v86q57 18 96.5 44.5t67.5 64.5h98v-868h-147v673h-115z" />
<glyph unicode="&#xba;" horiz-adv-x="545" d="M57 889v387q0 43 15.5 78.5t44.5 60t70 38t92 13.5q93 0 151 -55q59 -54 59 -139v-385q0 -97 -57 -151t-160 -54q-99 0 -157 55t-58 152zM211 874q0 -30 16 -46.5t45 -16.5q30 0 47 17t17 46v408q0 25 -17.5 40t-46.5 15q-26 0 -43.5 -15.5t-17.5 -39.5v-408z" />
<glyph unicode="&#xbb;" horiz-adv-x="739" d="M76 215l139 315l-139 318h172l141 -318l-141 -315h-172zM344 215l139 315l-139 318h174l146 -318l-146 -315h-174z" />
<glyph unicode="&#xbc;" horiz-adv-x="1126" d="M-6 1264v82q106 31 156 98h94v-809h-140v629h-110zM57 0l654 1446h176l-654 -1446h-176zM643 197v106l234 506h131v-506h86v-106h-86v-197h-131v197h-234zM762 303h115v297z" />
<glyph unicode="&#xbd;" horiz-adv-x="1120" d="M-6 1264v82q106 31 156 98h94v-809h-140v629h-110zM57 0l654 1446h176l-654 -1446h-176zM649 117q145 177 216 301.5t71 199.5q0 46 -17 72.5t-47 26.5q-38 0 -53.5 -25t-19.5 -87l-2 -30h-135v15q0 112 55 173.5t157 61.5q43 0 78.5 -13.5t60.5 -38.5t38.5 -60.5 t13.5 -79.5q0 -90 -52 -195q-26 -54 -78.5 -133.5t-133.5 -187.5h254v-117h-406v117z" />
<glyph unicode="&#xbe;" horiz-adv-x="1272" d="M37 848v20h133v-32q0 -54 15.5 -78.5t50.5 -24.5q38 0 55.5 27t17.5 90q0 84 -25.5 116.5t-88.5 32.5h-19v113q3 0 10.5 1t10.5 1q54 0 77 29t23 96q0 55 -14.5 79.5t-44.5 24.5q-35 0 -50.5 -20t-15.5 -68v-30h-131v6q0 109 51.5 169t145.5 60q182 0 182 -229 q0 -72 -18 -113t-60 -61q52 -23 74 -67t22 -126q0 -121 -49.5 -183.5t-146.5 -62.5t-151 60.5t-54 169.5zM203 0l653 1446h176l-653 -1446h-176zM788 197v106l234 506h131v-506h86v-106h-86v-197h-131v197h-234zM907 303h115v297z" />
<glyph unicode="&#xbf;" horiz-adv-x="631" d="M29 248q0 113 85 264t99 188q22 57 32.5 117.5t10.5 132.5q0 28 -0.5 42t-1.5 26h174q0 -10 1 -29.5t1 -30.5q0 -103 -15.5 -196t-47.5 -178q-25 -63 -81 -170q-57 -108 -57 -154q0 -45 23.5 -71.5t60.5 -26.5q38 0 71 36t67 117l174 -69q-80 -277 -310 -277 q-134 0 -210 75t-76 204zM233 1206v238h216v-238h-216z" />
<glyph unicode="&#xc0;" horiz-adv-x="791" d="M12 0l238 1446h291l237 -1446h-229l-45 313h-225l-48 -313h-219zM163 1741h251l99 -222h-162zM307 518h170l-76 604h-14z" />
<glyph unicode="&#xc1;" horiz-adv-x="791" d="M12 0l238 1446h291l237 -1446h-229l-45 313h-225l-48 -313h-219zM281 1519l97 222h254l-189 -222h-162zM307 518h170l-76 604h-14z" />
<glyph unicode="&#xc2;" horiz-adv-x="791" d="M12 0l238 1446h291l237 -1446h-229l-45 313h-225l-48 -313h-219zM144 1519l154 222h196l154 -222h-162l-90 109l-90 -109h-162zM307 518h170l-76 604h-14z" />
<glyph unicode="&#xc3;" horiz-adv-x="791" d="M12 0l238 1446h291l237 -1446h-229l-45 313h-225l-48 -313h-219zM142 1528v16q0 87 41.5 135.5t116.5 48.5q43 0 107 -31q32 -16 53 -23t32 -7q23 0 37 15.5t14 41.5v8h107v-16q0 -88 -42.5 -137t-115.5 -49q-23 0 -49.5 7t-58.5 23q-64 31 -84 31q-24 0 -37.5 -15 t-13.5 -40v-8h-107zM307 518h170l-76 604h-14z" />
<glyph unicode="&#xc4;" horiz-adv-x="791" d="M12 0l238 1446h291l237 -1446h-229l-45 313h-225l-48 -313h-219zM169 1530v200h182v-200h-182zM307 518h170l-76 604h-14zM439 1530v200h184v-200h-184z" />
<glyph unicode="&#xc5;" horiz-adv-x="791" d="M12 0l238 1446h291l237 -1446h-229l-45 313h-225l-48 -313h-219zM217 1671q0 74 52 126t126 52t126 -52t52 -126t-52 -126q-51 -52 -126 -52q-76 0 -127 51t-51 127zM307 518h170l-76 604h-14zM328 1671q0 -27 20 -47t47 -20q29 0 48.5 19.5t19.5 47.5q0 29 -19.5 48.5 t-48.5 19.5q-27 0 -47 -20t-20 -48z" />
<glyph unicode="&#xc6;" horiz-adv-x="1143" d="M-61 0l448 1446h694v-209h-364v-379h266v-209h-266v-432h364v-217h-579v346h-232l-94 -346h-237zM324 547h176v608h-15z" />
<glyph unicode="&#xc7;" horiz-adv-x="850" d="M88 371v741q0 170 93 268q93 97 257 97q154 0 245 -100t91 -271v-139h-229v159q0 150 -115 150t-115 -150v-807q0 -151 115 -151t115 151v197h229v-151q0 -191 -89 -293.5t-255 -102.5q-170 0 -256 101.5t-86 300.5zM214 -240q68 -16 131 -16q37 0 59.5 14t22.5 37 q0 60 -111 60h-10l62 145h69l-35 -78h17q96 0 148.5 -33.5t52.5 -93.5q0 -64 -61 -97.5t-179 -33.5q-80 0 -166 19v77z" />
<glyph unicode="&#xc8;" horiz-adv-x="754" d="M115 0v1446h581v-209h-358v-379h258v-209h-258v-432h358v-217h-581zM178 1741h251l99 -222h-162z" />
<glyph unicode="&#xc9;" horiz-adv-x="754" d="M115 0v1446h581v-209h-358v-379h258v-209h-258v-432h358v-217h-581zM296 1519l97 222h254l-189 -222h-162z" />
<glyph unicode="&#xca;" horiz-adv-x="754" d="M115 0v1446h581v-209h-358v-379h258v-209h-258v-432h358v-217h-581zM159 1519l154 222h196l154 -222h-162l-90 109l-90 -109h-162z" />
<glyph unicode="&#xcb;" horiz-adv-x="754" d="M115 0v1446h581v-209h-358v-379h258v-209h-258v-432h358v-217h-581zM184 1530v200h182v-200h-182zM454 1530v200h184v-200h-184z" />
<glyph unicode="&#xcc;" horiz-adv-x="451" d="M-7 1741h251l99 -222h-162zM115 0v1446h227v-1446h-227z" />
<glyph unicode="&#xcd;" horiz-adv-x="451" d="M111 1519l97 222h254l-189 -222h-162zM115 0v1446h227v-1446h-227z" />
<glyph unicode="&#xce;" horiz-adv-x="451" d="M-26 1519l154 222h196l154 -222h-162l-90 109l-90 -109h-162zM115 0v1446h227v-1446h-227z" />
<glyph unicode="&#xcf;" horiz-adv-x="451" d="M-1 1530v200h182v-200h-182zM115 0v1446h227v-1446h-227zM269 1530v200h184v-200h-184z" />
<glyph unicode="&#xd0;" horiz-adv-x="889" d="M10 670v166h113v610h319q186 0 273.5 -96.5t87.5 -300.5v-646q0 -210 -84.5 -306.5t-267.5 -96.5h-328v670h-113zM346 213h113q60 0 88 37t28 115v696q0 90 -42.5 131t-135.5 41h-51v-397h115v-166h-115v-457z" />
<glyph unicode="&#xd1;" horiz-adv-x="938" d="M115 0v1446h200l283 -864q8 -25 19.5 -65.5t23.5 -88.5q-11 63 -18 116.5t-7 78.5v823h209v-1446h-209l-272 799l-5 15q-14 42 -24.5 77t-17.5 65q12 -76 18.5 -126.5t6.5 -73.5v-756h-207zM230 1528v16q0 87 41.5 135.5t116.5 48.5q43 0 107 -31q32 -16 53 -23t32 -7 q23 0 37 15.5t14 41.5v8h107v-16q0 -88 -42.5 -137t-115.5 -49q-23 0 -49.5 7t-58.5 23q-64 31 -84 31q-24 0 -37.5 -15t-13.5 -40v-8h-107z" />
<glyph unicode="&#xd2;" horiz-adv-x="862" d="M88 371v741q0 170 93 268q93 97 257 97q154 0 245 -100t91 -271v-741q0 -191 -89 -293.5t-255 -102.5q-168 0 -255 102t-87 300zM200 1741h251l99 -222h-162zM315 319q0 -151 115 -151t115 151v807q0 150 -115 150t-115 -150v-807z" />
<glyph unicode="&#xd3;" horiz-adv-x="862" d="M88 371v741q0 170 93 268q93 97 257 97q154 0 245 -100t91 -271v-741q0 -191 -89 -293.5t-255 -102.5q-168 0 -255 102t-87 300zM315 319q0 -151 115 -151t115 151v807q0 150 -115 150t-115 -150v-807zM318 1519l97 222h254l-189 -222h-162z" />
<glyph unicode="&#xd4;" horiz-adv-x="862" d="M88 371v741q0 170 93 268q93 97 257 97q154 0 245 -100t91 -271v-741q0 -191 -89 -293.5t-255 -102.5q-168 0 -255 102t-87 300zM181 1519l154 222h196l154 -222h-162l-90 109l-90 -109h-162zM315 319q0 -151 115 -151t115 151v807q0 150 -115 150t-115 -150v-807z" />
<glyph unicode="&#xd5;" horiz-adv-x="862" d="M88 371v741q0 170 93 268q93 97 257 97q154 0 245 -100t91 -271v-741q0 -191 -89 -293.5t-255 -102.5q-168 0 -255 102t-87 300zM179 1528v16q0 87 41.5 135.5t116.5 48.5q43 0 107 -31q32 -16 53 -23t32 -7q23 0 37 15.5t14 41.5v8h107v-16q0 -88 -42.5 -137t-115.5 -49 q-23 0 -49.5 7t-58.5 23q-64 31 -84 31q-24 0 -37.5 -15t-13.5 -40v-8h-107zM315 319q0 -151 115 -151t115 151v807q0 150 -115 150t-115 -150v-807z" />
<glyph unicode="&#xd6;" horiz-adv-x="862" d="M88 371v741q0 170 93 268q93 97 257 97q154 0 245 -100t91 -271v-741q0 -191 -89 -293.5t-255 -102.5q-168 0 -255 102t-87 300zM206 1530v200h182v-200h-182zM315 319q0 -151 115 -151t115 151v807q0 150 -115 150t-115 -150v-807zM476 1530v200h184v-200h-184z" />
<glyph unicode="&#xd7;" horiz-adv-x="1706" d="M287 152l458 458l-458 461l116 117l459 -459l461 459l117 -117l-459 -461l459 -458l-117 -119l-461 461l-459 -461z" />
<glyph unicode="&#xd8;" horiz-adv-x="862" d="M61 -31l66 172q-20 45 -29.5 100t-9.5 130v741q0 170 92 268q93 97 258 97q98 0 183 -50l16 48h162l-64 -175q20 -46 29.5 -94.5t9.5 -99.5v-741q0 -191 -89 -293.5t-255 -102.5q-57 0 -104.5 13t-89.5 38l-15 -51h-160zM307 569l236 652q-16 33 -45 50t-68 17 q-54 0 -88.5 -32.5t-34.5 -84.5v-602zM317 227q20 -33 50.5 -51t66.5 -18q55 0 88 37.5t33 101.5v582z" />
<glyph unicode="&#xd9;" horiz-adv-x="885" d="M98 371v1075h228v-1120q0 -63 32 -100.5t86 -37.5t83.5 37t29.5 101v1120h227v-1081q0 -192 -88 -294t-254 -102q-168 0 -256 102.5t-88 299.5zM210 1741h251l99 -222h-162z" />
<glyph unicode="&#xda;" horiz-adv-x="885" d="M98 371v1075h228v-1120q0 -63 32 -100.5t86 -37.5t83.5 37t29.5 101v1120h227v-1081q0 -192 -88 -294t-254 -102q-168 0 -256 102.5t-88 299.5zM328 1519l97 222h254l-189 -222h-162z" />
<glyph unicode="&#xdb;" horiz-adv-x="885" d="M98 371v1075h228v-1120q0 -63 32 -100.5t86 -37.5t83.5 37t29.5 101v1120h227v-1081q0 -192 -88 -294t-254 -102q-168 0 -256 102.5t-88 299.5zM191 1519l154 222h196l154 -222h-162l-90 109l-90 -109h-162z" />
<glyph unicode="&#xdc;" horiz-adv-x="885" d="M98 371v1075h228v-1120q0 -63 32 -100.5t86 -37.5t83.5 37t29.5 101v1120h227v-1081q0 -192 -88 -294t-254 -102q-168 0 -256 102.5t-88 299.5zM216 1530v200h182v-200h-182zM486 1530v200h184v-200h-184z" />
<glyph unicode="&#xdd;" horiz-adv-x="702" d="M-25 1446h226l145 -578h14l138 578h227l-260 -846v-600h-223v573zM238 1519l97 222h254l-189 -222h-162z" />
<glyph unicode="&#xde;" horiz-adv-x="834" d="M113 0v1446h223v-289h104q182 0 265 -99q83 -100 83 -319q0 -206 -81 -324q-79 -118 -218 -118h-153v-297h-223zM336 506h88q78 0 107 47q30 48 30 182q0 124 -31 168q-32 45 -114 45h-80v-442z" />
<glyph unicode="&#xdf;" horiz-adv-x="823" d="M-16 883v184h131q0 12 -1 25.5t-1 27.5v8q0 167 71 242.5t226 75.5q135 0 208.5 -68.5t73.5 -193.5q0 -78 -29.5 -127t-95.5 -78q102 -23 142 -82q41 -59 41 -197v-366q0 -177 -59.5 -262.5t-180.5 -85.5q-73 0 -150 43l1 155q44 -26 71 -26q58 0 88.5 36.5t30.5 108.5 v436q0 79 -29 111.5t-98 32.5h-64v184h60q34 0 58 28t24 70q0 51 -25.5 80t-70.5 29t-69 -27t-24 -78v-1169h-198v883h-131z" />
<glyph unicode="&#xe0;" d="M47 221q0 147 83 251q84 104 308 224v115q0 98 -67 98q-42 0 -66 -24t-24 -66v-59h-201q0 5 -1 14t-1 14q0 135 85 220q86 86 214 86q136 0 201 -81.5t65 -252.5v-455q0 -108 5 -187.5t14 -117.5h-199q-8 21 -12.5 49.5t-6.5 70.5q-48 -64 -105.5 -99t-117.5 -35 q-84 0 -129 60.5t-45 174.5zM149 1389h251l99 -222h-162zM252 272q0 -51 16 -77.5t45 -26.5q35 0 69.5 26.5t55.5 71.5v277q-54 -35 -90 -67t-56 -61q-40 -58 -40 -143z" />
<glyph unicode="&#xe1;" d="M47 221q0 147 83 251q84 104 308 224v115q0 98 -67 98q-42 0 -66 -24t-24 -66v-59h-201q0 5 -1 14t-1 14q0 135 85 220q86 86 214 86q136 0 201 -81.5t65 -252.5v-455q0 -108 5 -187.5t14 -117.5h-199q-8 21 -12.5 49.5t-6.5 70.5q-48 -64 -105.5 -99t-117.5 -35 q-84 0 -129 60.5t-45 174.5zM252 272q0 -51 16 -77.5t45 -26.5q35 0 69.5 26.5t55.5 71.5v277q-54 -35 -90 -67t-56 -61q-40 -58 -40 -143zM267 1167l97 222h254l-189 -222h-162z" />
<glyph unicode="&#xe2;" d="M47 221q0 147 83 251q84 104 308 224v115q0 98 -67 98q-42 0 -66 -24t-24 -66v-59h-201q0 5 -1 14t-1 14q0 135 85 220q86 86 214 86q136 0 201 -81.5t65 -252.5v-455q0 -108 5 -187.5t14 -117.5h-199q-8 21 -12.5 49.5t-6.5 70.5q-48 -64 -105.5 -99t-117.5 -35 q-84 0 -129 60.5t-45 174.5zM130 1167l154 222h196l154 -222h-162l-90 109l-90 -109h-162zM252 272q0 -51 16 -77.5t45 -26.5q35 0 69.5 26.5t55.5 71.5v277q-54 -35 -90 -67t-56 -61q-40 -58 -40 -143z" />
<glyph unicode="&#xe3;" d="M47 221q0 147 83 251q84 104 308 224v115q0 98 -67 98q-42 0 -66 -24t-24 -66v-59h-201q0 5 -1 14t-1 14q0 135 85 220q86 86 214 86q136 0 201 -81.5t65 -252.5v-455q0 -108 5 -187.5t14 -117.5h-199q-8 21 -12.5 49.5t-6.5 70.5q-48 -64 -105.5 -99t-117.5 -35 q-84 0 -129 60.5t-45 174.5zM128 1176v16q0 87 41.5 135.5t116.5 48.5q43 0 107 -31q32 -16 53 -23t32 -7q23 0 37 15.5t14 41.5v8h107v-16q0 -88 -42.5 -137t-115.5 -49q-23 0 -49.5 7t-58.5 23q-64 31 -84 31q-24 0 -37.5 -15t-13.5 -40v-8h-107zM252 272q0 -51 16 -77.5 t45 -26.5q35 0 69.5 26.5t55.5 71.5v277q-54 -35 -90 -67t-56 -61q-40 -58 -40 -143z" />
<glyph unicode="&#xe4;" d="M47 221q0 147 83 251q84 104 308 224v115q0 98 -67 98q-42 0 -66 -24t-24 -66v-59h-201q0 5 -1 14t-1 14q0 135 85 220q86 86 214 86q136 0 201 -81.5t65 -252.5v-455q0 -108 5 -187.5t14 -117.5h-199q-8 21 -12.5 49.5t-6.5 70.5q-48 -64 -105.5 -99t-117.5 -35 q-84 0 -129 60.5t-45 174.5zM155 1178v200h182v-200h-182zM252 272q0 -51 16 -77.5t45 -26.5q35 0 69.5 26.5t55.5 71.5v277q-54 -35 -90 -67t-56 -61q-40 -58 -40 -143zM425 1178v200h184v-200h-184z" />
<glyph unicode="&#xe5;" d="M47 221q0 147 83 251q84 104 308 224v115q0 98 -67 98q-42 0 -66 -24t-24 -66v-59h-201q0 5 -1 14t-1 14q0 135 85 220q86 86 214 86q136 0 201 -81.5t65 -252.5v-455q0 -108 5 -187.5t14 -117.5h-199q-8 21 -12.5 49.5t-6.5 70.5q-48 -64 -105.5 -99t-117.5 -35 q-84 0 -129 60.5t-45 174.5zM209 1319q0 74 52 126t126 52t126 -52t52 -126q0 -75 -52 -127q-53 -51 -126 -51q-76 0 -127 51t-51 127zM252 272q0 -51 16 -77.5t45 -26.5q35 0 69.5 26.5t55.5 71.5v277q-54 -35 -90 -67t-56 -61q-40 -58 -40 -143zM319 1317q0 -27 20 -46.5 t48 -19.5q29 0 48.5 19t19.5 47q0 29 -19.5 48t-48.5 19q-28 0 -48 -19.5t-20 -47.5z" />
<glyph unicode="&#xe6;" horiz-adv-x="1096" d="M51 221q0 146 83 250q82 103 310 225v115q0 96 -69 96q-51 0 -72.5 -33.5t-21.5 -113.5h-201v4q0 147 83 239q84 91 218 91q52 0 94 -15t84 -47q43 32 87 47t95 15q136 0 210.5 -82t74.5 -232v-272h-379v-201q0 -83 20.5 -116t67.5 -33q49 0 69 27q19 28 19 122v74h203 v-80q0 -163 -72.5 -246.5t-214.5 -83.5q-44 0 -80.5 9t-68 28.5t-59 50t-54.5 74.5q-132 -147 -252 -147q-82 0 -128 61.5t-46 173.5zM256 274q0 -51 15.5 -78.5t43.5 -27.5q81 0 129 98v277q-110 -74 -149 -131t-39 -138zM647 674h176v108q0 66 -21 95.5t-67 29.5t-67 -29 t-21 -96v-108z" />
<glyph unicode="&#xe7;" d="M76 301v471q0 148 82 234q82 88 217 88q66 0 119 -21.5t89.5 -62t56 -98.5t19.5 -132v-84h-204v86q0 67 -20.5 96t-65.5 29q-48 0 -68 -29t-20 -96v-475q0 -84 19.5 -116.5t66.5 -32.5q48 0 68 27q20 29 20 122v82h204v-88q0 -330 -297 -330q-133 0 -209 88 q-77 89 -77 242zM153 -240q68 -16 131 -16q37 0 59.5 14t22.5 37q0 60 -111 60h-10l62 145h69l-35 -78h17q96 0 148.5 -33.5t52.5 -93.5q0 -64 -61 -97.5t-179 -33.5q-80 0 -166 19v77z" />
<glyph unicode="&#xe8;" d="M76 301v479q0 139 84 226q84 88 217 88q137 0 209.5 -80.5t72.5 -233.5v-272h-378v-201q0 -84 19.5 -116.5t66.5 -32.5q48 0 68 27q20 29 20 122v74h204v-80q0 -330 -297 -330q-134 0 -210 88t-76 242zM145 1389h251l99 -222h-162zM281 674h174v108q0 67 -20.5 96 t-65.5 29q-48 0 -68 -29t-20 -96v-108z" />
<glyph unicode="&#xe9;" d="M76 301v479q0 139 84 226q84 88 217 88q137 0 209.5 -80.5t72.5 -233.5v-272h-378v-201q0 -84 19.5 -116.5t66.5 -32.5q48 0 68 27q20 29 20 122v74h204v-80q0 -330 -297 -330q-134 0 -210 88t-76 242zM263 1167l97 222h254l-189 -222h-162zM281 674h174v108 q0 67 -20.5 96t-65.5 29q-48 0 -68 -29t-20 -96v-108z" />
<glyph unicode="&#xea;" d="M76 301v479q0 139 84 226q84 88 217 88q137 0 209.5 -80.5t72.5 -233.5v-272h-378v-201q0 -84 19.5 -116.5t66.5 -32.5q48 0 68 27q20 29 20 122v74h204v-80q0 -330 -297 -330q-134 0 -210 88t-76 242zM126 1167l154 222h196l154 -222h-162l-90 109l-90 -109h-162z M281 674h174v108q0 67 -20.5 96t-65.5 29q-48 0 -68 -29t-20 -96v-108z" />
<glyph unicode="&#xeb;" d="M76 301v479q0 139 84 226q84 88 217 88q137 0 209.5 -80.5t72.5 -233.5v-272h-378v-201q0 -84 19.5 -116.5t66.5 -32.5q48 0 68 27q20 29 20 122v74h204v-80q0 -330 -297 -330q-134 0 -210 88t-76 242zM151 1178v200h182v-200h-182zM281 674h174v108q0 67 -20.5 96 t-65.5 29q-48 0 -68 -29t-20 -96v-108zM421 1178v200h184v-200h-184z" />
<glyph unicode="&#xec;" horiz-adv-x="393" d="M-35 1389h251l99 -222h-162zM96 0v1067h201v-1067h-201z" />
<glyph unicode="&#xed;" horiz-adv-x="393" d="M83 1167l97 222h254l-189 -222h-162zM96 0v1067h201v-1067h-201z" />
<glyph unicode="&#xee;" horiz-adv-x="393" d="M-54 1167l154 222h196l154 -222h-162l-90 109l-90 -109h-162zM96 0v1067h201v-1067h-201z" />
<glyph unicode="&#xef;" horiz-adv-x="393" d="M-29 1178v200h182v-200h-182zM96 0v1067h201v-1067h-201zM241 1178v200h184v-200h-184z" />
<glyph unicode="&#xf0;" horiz-adv-x="727" d="M76 270v504q0 125 80 199t215 74q7 0 16 -1t19 -2q-18 40 -42 76t-57 72l-164 -129l-53 78l154 121l-20 21l-21 22q-11 12 -28 29l-40 40l92 101q32 -25 65.5 -55t69.5 -66l152 121l57 -76l-143 -113q58 -65 100 -130.5t69.5 -134.5t40.5 -143t13 -155v-457 q0 -136 -77 -215q-77 -78 -212 -78q-130 0 -208 80q-78 81 -78 217zM281 250q0 -45 21 -68.5t60 -23.5q42 0 64.5 23.5t22.5 68.5v553q0 35 -24 56.5t-63 21.5q-36 0 -58.5 -22t-22.5 -56v-553z" />
<glyph unicode="&#xf1;" horiz-adv-x="756" d="M96 0v1067h201v-117q55 64 113.5 97.5t113.5 33.5q140 0 140 -188v-893h-199v805q0 50 -11.5 67t-41.5 17q-22 0 -54.5 -22.5t-60.5 -57.5v-809h-201zM138 1176v16q0 87 41.5 135.5t116.5 48.5q43 0 107 -31q32 -16 53 -23t32 -7q23 0 37 15.5t14 41.5v8h107v-16 q0 -88 -42.5 -137t-115.5 -49q-23 0 -49.5 7t-58.5 23q-64 31 -84 31q-24 0 -37.5 -15t-13.5 -40v-8h-107z" />
<glyph unicode="&#xf2;" horiz-adv-x="727" d="M76 270v553q0 123 80 197t215 74q123 0 201 -78q79 -78 79 -199v-551q0 -136 -77 -215q-77 -78 -212 -78q-130 0 -208 80q-78 81 -78 217zM133 1389h251l99 -222h-162zM281 250q0 -45 21 -68.5t60 -23.5q40 0 63.5 24.5t23.5 67.5v581q0 35 -24 56.5t-63 21.5 q-36 0 -58.5 -21.5t-22.5 -56.5v-581z" />
<glyph unicode="&#xf3;" horiz-adv-x="727" d="M76 270v553q0 123 80 197t215 74q123 0 201 -78q79 -78 79 -199v-551q0 -136 -77 -215q-77 -78 -212 -78q-130 0 -208 80q-78 81 -78 217zM251 1167l97 222h254l-189 -222h-162zM281 250q0 -45 21 -68.5t60 -23.5q40 0 63.5 24.5t23.5 67.5v581q0 35 -24 56.5t-63 21.5 q-36 0 -58.5 -21.5t-22.5 -56.5v-581z" />
<glyph unicode="&#xf4;" horiz-adv-x="727" d="M76 270v553q0 123 80 197t215 74q123 0 201 -78q79 -78 79 -199v-551q0 -136 -77 -215q-77 -78 -212 -78q-130 0 -208 80q-78 81 -78 217zM114 1167l154 222h196l154 -222h-162l-90 109l-90 -109h-162zM281 250q0 -45 21 -68.5t60 -23.5q40 0 63.5 24.5t23.5 67.5v581 q0 35 -24 56.5t-63 21.5q-36 0 -58.5 -21.5t-22.5 -56.5v-581z" />
<glyph unicode="&#xf5;" horiz-adv-x="727" d="M76 270v553q0 123 80 197t215 74q123 0 201 -78q79 -78 79 -199v-551q0 -136 -77 -215q-77 -78 -212 -78q-130 0 -208 80q-78 81 -78 217zM112 1176v16q0 87 41.5 135.5t116.5 48.5q43 0 107 -31q32 -16 53 -23t32 -7q23 0 37 15.5t14 41.5v8h107v-16q0 -88 -42.5 -137 t-115.5 -49q-23 0 -49.5 7t-58.5 23q-64 31 -84 31q-24 0 -37.5 -15t-13.5 -40v-8h-107zM281 250q0 -45 21 -68.5t60 -23.5q40 0 63.5 24.5t23.5 67.5v581q0 35 -24 56.5t-63 21.5q-36 0 -58.5 -21.5t-22.5 -56.5v-581z" />
<glyph unicode="&#xf6;" horiz-adv-x="727" d="M76 270v553q0 123 80 197t215 74q123 0 201 -78q79 -78 79 -199v-551q0 -136 -77 -215q-77 -78 -212 -78q-130 0 -208 80q-78 81 -78 217zM139 1178v200h182v-200h-182zM281 250q0 -45 21 -68.5t60 -23.5q40 0 63.5 24.5t23.5 67.5v581q0 35 -24 56.5t-63 21.5 q-36 0 -58.5 -21.5t-22.5 -56.5v-581zM409 1178v200h184v-200h-184z" />
<glyph unicode="&#xf7;" horiz-adv-x="1706" d="M254 528v166h1198v-166h-1198zM717 229q0 57 40 97q41 41 97 41t97 -41q40 -40 40 -97q0 -56 -40 -96q-39 -39 -97 -39t-98 39q-39 39 -39 96zM717 989q0 58 40 98q41 41 97 41t97 -41q40 -40 40 -98q0 -56 -40 -96q-39 -39 -97 -39t-98 39q-39 39 -39 96z" />
<glyph unicode="&#xf8;" horiz-adv-x="727" d="M43 -47l68 158q-17 23 -26 59.5t-9 79.5v573q0 123 80 197t215 74q45 0 80 -9t67 -28l19 39h139l-60 -140q17 -23 26 -59.5t9 -79.5v-571q0 -124 -80 -199q-80 -74 -213 -74q-43 0 -79 9.5t-70 29.5l-27 -59h-139zM274 465l172 401q-7 26 -28.5 40t-52.5 14 q-19 0 -35.5 -6.5t-29 -17.5t-19.5 -26t-7 -32v-373zM283 201q7 -25 28.5 -38t53.5 -13q37 0 62.5 22.5t25.5 56.5v373z" />
<glyph unicode="&#xf9;" horiz-adv-x="756" d="M92 174v893h199v-819q0 -38 12.5 -55t40.5 -17q22 0 55.5 22.5t61.5 57.5v811h198v-1067h-198v117q-55 -66 -114 -99.5t-116 -33.5q-139 0 -139 190zM147 1389h251l99 -222h-162z" />
<glyph unicode="&#xfa;" horiz-adv-x="756" d="M92 174v893h199v-819q0 -38 12.5 -55t40.5 -17q22 0 55.5 22.5t61.5 57.5v811h198v-1067h-198v117q-55 -66 -114 -99.5t-116 -33.5q-139 0 -139 190zM265 1167l97 222h254l-189 -222h-162z" />
<glyph unicode="&#xfb;" horiz-adv-x="756" d="M92 174v893h199v-819q0 -38 12.5 -55t40.5 -17q22 0 55.5 22.5t61.5 57.5v811h198v-1067h-198v117q-55 -66 -114 -99.5t-116 -33.5q-139 0 -139 190zM128 1167l154 222h196l154 -222h-162l-90 109l-90 -109h-162z" />
<glyph unicode="&#xfc;" horiz-adv-x="756" d="M92 174v893h199v-819q0 -38 12.5 -55t40.5 -17q22 0 55.5 22.5t61.5 57.5v811h198v-1067h-198v117q-55 -66 -114 -99.5t-116 -33.5q-139 0 -139 190zM153 1178v200h182v-200h-182zM423 1178v200h184v-200h-184z" />
<glyph unicode="&#xfd;" horiz-adv-x="653" d="M18 1067h187l123 -684h8l100 684h199l-225 -1141q-29 -142 -95 -201q-67 -61 -196 -61q-25 0 -43 0.5t-37 2.5v190h37q42 0 71.5 9t48.5 28.5t29 51.5t13 79zM214 1167l97 222h254l-189 -222h-162z" />
<glyph unicode="&#xfe;" horiz-adv-x="739" d="M96 -336v1782h201v-463q39 51 85 74.5t103 23.5q88 0 134.5 -61t46.5 -176v-590q0 -132 -49.5 -200t-143.5 -68q-46 0 -91 25.5t-85 74.5v-422h-201zM297 199q45 -45 82 -45q82 0 82 112v551q0 51 -16.5 72.5t-53.5 21.5q-26 0 -48.5 -11t-45.5 -36v-665z" />
<glyph unicode="&#xff;" horiz-adv-x="653" d="M18 1067h187l123 -684h8l100 684h199l-225 -1141q-29 -142 -95 -201q-67 -61 -196 -61q-25 0 -43 0.5t-37 2.5v190h37q42 0 71.5 9t48.5 28.5t29 51.5t13 79zM102 1178v200h182v-200h-182zM372 1178v200h184v-200h-184z" />
<glyph unicode="&#x152;" horiz-adv-x="1188" d="M88 371v741q0 170 93 268q93 97 257 97q67 0 146 -31h542v-209h-358v-379h260v-209h-260v-432h358v-217h-542q-42 -15 -80.5 -23t-73.5 -8q-167 0 -254.5 102.5t-87.5 299.5zM315 305q0 -63 32.5 -100t86.5 -37q52 0 81.5 35.5t29.5 99.5v858q0 52 -31.5 83.5t-83.5 31.5 q-51 0 -83 -32t-32 -83v-856z" />
<glyph unicode="&#x153;" horiz-adv-x="1100" d="M76 270v553q0 123 80 197t215 74q107 0 186 -64q48 32 94 48t97 16q66 0 118.5 -21.5t88.5 -62t55.5 -98.5t19.5 -132v-272h-379v-201q0 -83 20.5 -116t67.5 -33q49 0 69 27q19 28 19 122v74h203v-80q0 -163 -72.5 -246.5t-214.5 -83.5q-110 0 -186 64q-40 -33 -86 -48.5 t-109 -15.5q-130 0 -208 81t-78 218zM281 250q0 -42 22.5 -67t58.5 -25q42 0 64.5 23.5t22.5 68.5v581q0 35 -24 56.5t-63 21.5q-36 0 -58.5 -21.5t-22.5 -56.5v-581zM651 674h176v108q0 66 -21 96.5t-67 30.5t-67 -29t-21 -98v-108z" />
<glyph unicode="&#x178;" horiz-adv-x="702" d="M-25 1446h226l145 -578h14l138 578h227l-260 -846v-600h-223v573zM126 1530v200h182v-200h-182zM396 1530v200h184v-200h-184z" />
<glyph unicode="&#x2c6;" horiz-adv-x="1024" d="M260 1167l154 222h196l154 -222h-162l-90 109l-90 -109h-162z" />
<glyph unicode="&#x2dc;" horiz-adv-x="1024" d="M258 1176v16q0 87 41.5 135.5t116.5 48.5q43 0 107 -31q32 -16 53 -23t32 -7q23 0 37 15.5t14 41.5v8h107v-16q0 -88 -42.5 -137t-115.5 -49q-23 0 -49.5 7t-58.5 23q-64 31 -84 31q-24 0 -37.5 -15t-13.5 -40v-8h-107z" />
<glyph unicode="&#x2013;" horiz-adv-x="1024" d="M0 467v133h1024v-133h-1024z" />
<glyph unicode="&#x2014;" horiz-adv-x="2048" d="M0 467v133h2048v-133h-2048z" />
<glyph unicode="&#x2018;" horiz-adv-x="440" d="M115 963v227l112 256h101l-76 -256h76v-227h-213z" />
<glyph unicode="&#x2019;" horiz-adv-x="440" d="M115 963l73 256h-73v227h213v-227l-115 -256h-98z" />
<glyph unicode="&#x201a;" horiz-adv-x="440" d="M115 0v227h213v-227l-115 -256h-98l73 256h-73z" />
<glyph unicode="&#x201c;" horiz-adv-x="739" d="M115 963v227l112 256h101l-76 -256h76v-227h-213zM412 963v227l114 256h101l-76 -256h76v-227h-215z" />
<glyph unicode="&#x201d;" horiz-adv-x="739" d="M115 963l73 256h-73v227h213v-227l-115 -256h-98zM412 963l75 256h-75v227h215v-227l-115 -256h-100z" />
<glyph unicode="&#x201e;" horiz-adv-x="739" d="M115 0v227h213v-227l-115 -256h-98l73 256h-73zM412 0v227h215v-227l-115 -256h-100l75 256h-75z" />
<glyph unicode="&#x2022;" horiz-adv-x="1208" d="M307 762q0 123 87 209q88 86 210 86q121 0 208 -87t87 -208q0 -122 -88 -210q-87 -87 -209 -87q-124 0 -209 87q-86 88 -86 210z" />
<glyph unicode="&#x2026;" horiz-adv-x="2048" d="M236 0v227h213v-227h-213zM918 0v227h213v-227h-213zM1602 0v227h213v-227h-213z" />
<glyph unicode="&#x2039;" horiz-adv-x="473" d="M76 530l147 318h172l-139 -318l139 -315h-172z" />
<glyph unicode="&#x203a;" horiz-adv-x="473" d="M76 215l139 315l-139 318h172l147 -318l-147 -315h-172z" />
<glyph unicode="&#x2122;" horiz-adv-x="1706" d="M225 1366v94h467v-94h-168v-448h-129v448h-170zM809 918v542h170l141 -360l133 360h170v-542h-114v428l-160 -428h-59l-166 428v-428h-115z" />
<glyph unicode="&#xe000;" horiz-adv-x="1065" d="M0 1065h1065v-1065h-1065v1065z" />
<glyph unicode="&#xfb01;" horiz-adv-x="870" d="M10 901v166h113v125q0 254 231 254q61 0 115 -16v-174q-21 4 -35 7t-18 3q-51 0 -72.5 -21t-21.5 -69v-109h127v-166h-127v-901h-199v901h-113zM573 0v1067h201v-1067h-201zM573 1247v199h201v-199h-201z" />
<glyph unicode="&#xfb02;" horiz-adv-x="870" d="M10 901v166h113v125q0 254 231 254q61 0 115 -16v-174q-21 4 -35 7t-18 3q-51 0 -72.5 -21t-21.5 -69v-109h127v-166h-127v-901h-199v901h-113zM573 0v1446h201v-1446h-201z" />
<glyph unicode="&#xfb03;" horiz-adv-x="1347" d="M10 901v166h113v125q0 254 231 254q61 0 115 -16v-174q-21 4 -35 7t-18 3q-51 0 -72.5 -21t-21.5 -69v-109h127v-166h-127v-901h-199v901h-113zM487 901v166h113v125q0 254 231 254q61 0 115 -16v-174q-21 4 -35 7t-18 3q-51 0 -72.5 -21t-21.5 -69v-109h127v-166h-127 v-901h-199v901h-113zM1050 0v1067h201v-1067h-201zM1050 1247v199h201v-199h-201z" />
<glyph unicode="&#xfb04;" horiz-adv-x="1347" d="M10 901v166h113v125q0 254 231 254q61 0 115 -16v-174q-21 4 -35 7t-18 3q-51 0 -72.5 -21t-21.5 -69v-109h127v-166h-127v-901h-199v901h-113zM487 901v166h113v125q0 254 231 254q61 0 115 -16v-174q-21 4 -35 7t-18 3q-51 0 -72.5 -21t-21.5 -69v-109h127v-166h-127 v-901h-199v901h-113zM1050 0v1446h201v-1446h-201z" />
</font>
</defs>
</svg>
